<svg xmlns="http://www.w3.org/2000/svg" width="190" height="31" fill="none"><path fill="#FCFFFC" d="M189.004 30.392h-22.777V1.065h7.624v22.9h15.153v6.427ZM153.134 21.551v8.84h-7.67v-8.84L133.331 1.065h8.433l7.488 12.766 7.533-12.766h8.433L153.13 21.551h.004ZM135.679 10.17h-7.67c-.404-2.2-1.803-3.968-5.054-3.968-2.706 0-4.464 1.12-4.464 3.018 0 1.68 1.263 2.414 3.697 2.888l4.286.95c5.64 1.164 9.246 3.365 9.246 8.411 0 5.866-5.054 9.53-12.719 9.53-6.902 0-13.124-3.19-13.846-10.437h7.666c.495 2.587 2.797 4.268 6.407 4.268 2.706 0 4.327-1.033 4.327-2.675 0-1.033-.586-2.114-3.247-2.588l-5.053-1.033c-6.044-1.25-8.887-3.882-8.887-8.54 0-5.867 4.963-9.575 12.179-9.575 4.963 0 12.36 1.854 13.127 9.748l.005.004ZM92.442 12.754h13.619v6.21H92.442v5.088h15.562v6.34H84.822V1.065h23.182v6.34H92.442v5.35ZM70.427 30.392 83.612 1.065h-8.391l-8.75 19.883-8.75-19.883h-8.388L62.56 30.392h7.867Z"></path><path fill="#EDFC33" d="m15.182 15.792 15.269 14.6H15.363L.003 15.709 15.319 1.065h15.133l-15.27 14.73v-.003ZM30.45 1.065v29.327l15.268-14.6L30.451 1.065Z"></path></svg>
